# xmcd
#
# Track frame offsets: 
#        150
#        13612
#        25025
#        39625
#        55360
#        71460
#        93532
#        105335
#        120117
#        138045
#        152970
#        163887
#        179907
#        193505
#        220115
#        232492
#        249107
#        263677
#        282575
#
# Disc length: 3967 seconds
#
# Revision: 6
# Processed by: cddbd v1.5.1PL0 Copyright (c) Steve Scherf et al.
# Submitted via: ExactAudioCopy v0.90b4
#
DISCID=0b0f7d13
DTITLE=Taj Mahal - In Progress and In Motion 1965-1998 [CD2]
DYEAR=1998
DGENRE=Blues
TTITLE0=Oh, Susanna
TTITLE1=Cakewalk Into Town
TTITLE2=Fishin' Blues [Live - Previously Unreleased]
TTITLE3=Nobody's Busines But My Own [Live - Previously Unreleased]
TTITLE4=Sweet Mama Janisse
TTITLE5=Little Red Hen Blues [Live - Previously Unreleased]
TTITLE6=Mary Don't You Weep [Live - Previously Unreleased]
TTITLE7=Sweet Home Chicago [Live - Previously Unreleased]
TTITLE8=Frankie and Albert
TTITLE9=M'Banjo [Previously Unreleased]
TTITLE10=Statesboro Blues [Take 2]
TTITLE11=Bye and Bye
TTITLE12=Six Days On The Road
TTITLE13=We Gonna Rock [Live]
TTITLE14=Ain't It Funky Now [Previously Unreleased]
TTITLE15=Tom and Sally Drake
TTITLE16=Fishin' Blues [Previously Unreleased]
TTITLE17=Blues With A Feeling [Previously Unreleased]
TTITLE18=Freight Train [Previously Unreleased]
EXTD=YEAR: 1998
EXTT0=
EXTT1=
EXTT2=
EXTT3=
EXTT4=
EXTT5=
EXTT6=
EXTT7=
EXTT8=
EXTT9=
EXTT10=
EXTT11=
EXTT12=
EXTT13=
EXTT14=
EXTT15=
EXTT16=
EXTT17=
EXTT18=
PLAYORDER=
